<svg id="Component_2_1" data-name="Component 2 – 1" xmlns="http://www.w3.org/2000/svg" width="53.161" height="64" viewBox="0 0 53.161 64">
  <path id="Path_906" data-name="Path 906" d="M-223.132,4727.033a27.3,27.3,0,0,0-7.538,18.742,27.245,27.245,0,0,0,2.157,10.736c2.131,5.029,4.919,7.334,12.915,15.031,2.711,2.609,6.746,6.536,11.651,11.484,5.192-4.592,9.4-8.653,12.517-11.776,7.684-7.695,9.343-10.273,10.527-12.634a28.154,28.154,0,0,0,3.393-12.867c.052-12.4-9.064-20.223-9.566-20.64a26.932,26.932,0,0,0-16.9-6.083h-.065a27.26,27.26,0,0,0-19.094,8.007" transform="translate(230.671 -4719.026)" fill="#f59f25"/>
  <g id="Path_907" data-name="Path 907" transform="translate(230.671 -4719.026)" fill="#090326">
    <path d="M -194.156005859375 4756.19873046875 L -194.156005859375 4754.99609375 L -194.156005859375 4736.98779296875 L -194.156005859375 4735.7744140625 L -193.3011169433594 4736.6357421875 L -184.5881042480469 4745.4150390625 C -184.4187927246094 4745.5849609375 -184.3257446289062 4745.8115234375 -184.3266296386719 4746.05224609375 C -184.3274993896484 4746.2919921875 -184.4218597412109 4746.517578125 -184.5923156738281 4746.6875 L -193.3034210205078 4755.3505859375 L -194.156005859375 4756.19873046875 Z" stroke="none"/>
    <path d="M -193.656005859375 4736.98779296875 L -193.656005859375 4754.99609375 L -184.9450073242188 4746.3330078125 C -184.7879943847656 4746.1767578125 -184.7870025634766 4745.923828125 -184.9429931640625 4745.76708984375 L -193.656005859375 4736.98779296875 M -194.656005859375 4734.560546875 L -184.2332153320312 4745.0625 C -183.9700012207031 4745.3271484375 -183.8252716064453 4745.6796875 -183.8266296386719 4746.0537109375 C -183.8280029296875 4746.42724609375 -183.9746704101562 4746.7783203125 -184.2396240234375 4747.0419921875 L -194.656005859375 4757.40087890625 L -194.656005859375 4734.560546875 Z" stroke="none" fill="#707070"/>
  </g>
  <path id="Path_908" data-name="Path 908" d="M-190.224,4745.992a13.531,13.531,0,0,1-13.531,13.531,13.531,13.531,0,0,1-13.53-13.531,13.531,13.531,0,0,1,13.53-13.53,13.518,13.518,0,0,1,11.22,5.965,13.47,13.47,0,0,1,2.311,7.565" transform="translate(230.671 -4719.026)" fill="#fff"/>
  <path id="Path_909" data-name="Path 909" d="M-197.371,4745.992a6.72,6.72,0,0,1-6.72,6.72,6.72,6.72,0,0,1-6.719-6.72,6.719,6.719,0,0,1,6.719-6.719,6.719,6.719,0,0,1,6.72,6.719" transform="translate(230.671 -4719.026)" fill="#090326"/>
  <path id="Path_910" data-name="Path 910" d="M-202.466,4742.184a1.625,1.625,0,0,1-1.625,1.625,1.625,1.625,0,0,1-1.624-1.625,1.625,1.625,0,0,1,1.624-1.625,1.625,1.625,0,0,1,1.625,1.625" transform="translate(230.671 -4719.026)" fill="#fff"/>
</svg>
