<svg xmlns="http://www.w3.org/2000/svg" width="21.517" height="24.736" viewBox="0 0 21.517 24.736">
  <g id="Group_404" data-name="Group 404" transform="translate(1600.034 -4738.706)">
    <g id="Group_401" data-name="Group 401">
      <path id="Path_903" data-name="Path 903" d="M-1581.668,4745.077a10.69,10.69,0,0,0-5.148-2.87v2.316a8.539,8.539,0,0,1,6.063,8.161,8.533,8.533,0,0,1-8.522,8.523,8.533,8.533,0,0,1-8.523-8.523,8.539,8.539,0,0,1,6.063-8.161v-2.316a10.7,10.7,0,0,0-5.148,2.87,10.686,10.686,0,0,0-3.151,7.607,10.687,10.687,0,0,0,3.151,7.607,10.688,10.688,0,0,0,7.608,3.151,10.687,10.687,0,0,0,7.607-3.151,10.687,10.687,0,0,0,3.151-7.607A10.686,10.686,0,0,0-1581.668,4745.077Zm-6.49-.843v-2.251a10.856,10.856,0,0,0-1.117-.057,10.885,10.885,0,0,0-1.118.057v2.251a8.617,8.617,0,0,1,1.118-.073A8.6,8.6,0,0,1-1588.158,4744.234Z" fill="#fff"/>
    </g>
    <g id="Group_403" data-name="Group 403">
      <g id="Group_402" data-name="Group 402">
        <rect id="Rectangle_202" data-name="Rectangle 202" width="2.236" height="10.225" transform="translate(-1590.393 4738.706)" fill="#fff"/>
        <rect id="Rectangle_203" data-name="Rectangle 203" width="2.236" height="10.225" transform="translate(-1590.393 4738.706)" fill="#fff"/>
      </g>
    </g>
  </g>
</svg>
