<svg xmlns="http://www.w3.org/2000/svg" width="31.932" height="37.591" viewBox="0 0 31.932 37.591">
  <g id="Group_407" data-name="Group 407" transform="translate(908.507 -4770.331)">
    <path id="Path_904" data-name="Path 904" d="M-876.579,4781.963c.071,2.009-.724,3.8-1.33,5.63-1.123,3.389-2.253,6.776-3.366,10.168a1.9,1.9,0,0,0,1.141,2.495,2.163,2.163,0,0,1,1.49,2.244,2.072,2.072,0,0,1-2.763,1.794c-1.92-.585-3.821-1.234-5.727-1.866q-9.636-3.2-19.271-6.4c-.211-.07-.424-.139-.634-.215a2.1,2.1,0,0,1-1.408-2.468,2.143,2.143,0,0,1,2.413-1.631c1.965.262,2.357.027,2.988-1.86,1.353-4.044,2.646-8.109,4.057-12.132a9.487,9.487,0,0,1,11.4-6.23.977.977,0,0,0,.784-.276,2.22,2.22,0,0,1,2.387-.791,2.026,2.026,0,0,1,1.422,2.041c0,.532.322.641.69.818A9.479,9.479,0,0,1-876.579,4781.963Z" fill="#111023"/>
    <path id="Path_905" data-name="Path 905" d="M-890.8,4807.922a4.265,4.265,0,0,1-4.323-4.627c.112-.786.27-.9,1.009-.664,2.164.7,4.32,1.425,6.483,2.125.5.161.623.412.362.88A4.167,4.167,0,0,1-890.8,4807.922Z" fill="#111023"/>
  </g>
</svg>
