<svg id="Group_2963" data-name="Group 2963" xmlns="http://www.w3.org/2000/svg" width="36.37" height="43.039" viewBox="0 0 36.37 43.039">
  <g id="Group_1763" data-name="Group 1763" transform="translate(0 0)">
    <path id="Path_1911" data-name="Path 1911" d="M1279.414,4078.828a16.569,16.569,0,0,1,1.862,1.016,6.065,6.065,0,0,1,2.505,4.813c.014.215,0,.432,0,.726h5.856c1.8,0,2.293.5,2.3,2.279,0,.33,0,.66,0,1.043l1.622.071v3.312h-3.219v1.035q0,11.637,0,23.272a4.916,4.916,0,0,1-2.024,4.449,5.374,5.374,0,0,1-2.688.968c-6.832.078-13.666.051-20.5.037-2.678-.006-4.7-2.328-4.707-5.371q-.011-11.637,0-23.271v-1.09h-3.233v-3.328l1.637-.091v-1.29c0-1.435.586-2.02,2.044-2.026,1.821-.007,3.641,0,5.461,0h.616a6.161,6.161,0,0,1,1.516-4.551,20.371,20.371,0,0,1,2.885-2Zm-15.547,13.325v.964q0,11.676,0,23.353c0,1.454.571,2.023,2.027,2.023q9.492,0,18.984,0c1.448,0,2.015-.575,2.015-2.037q0-11.673,0-23.351v-.952Zm16.353-6.813c.1-2.029-.875-3.064-2.811-3.066-1.4,0-2.792-.006-4.189,0a2.5,2.5,0,0,0-2.651,3.066Z" transform="translate(-1257.188 -4078.828)" fill="red"/>
    <path id="Path_1912" data-name="Path 1912" d="M1268.827,4112.726h-3.239v-19.931h3.239Z" transform="translate(-1255.654 -4076.277)" fill="red"/>
    <path id="Path_1913" data-name="Path 1913" d="M1280.065,4092.789v19.925h-3.257v-19.925Z" transform="translate(-1253.605 -4076.279)" fill="red"/>
    <path id="Path_1914" data-name="Path 1914" d="M1271.2,4092.789h3.258v19.9H1271.2Z" transform="translate(-1254.629 -4076.279)" fill="red"/>
  </g>
</svg>
