<svg xmlns="http://www.w3.org/2000/svg" width="42.548" height="42.546" viewBox="0 0 42.548 42.546">
  <path id="Subtraction_3" data-name="Subtraction 3" d="M21.274,42.546A21.269,21.269,0,0,1,6.234,6.234,21.271,21.271,0,1,1,36.316,36.315,21.132,21.132,0,0,1,21.274,42.546Zm-9.332-30.6a1.167,1.167,0,0,0-1.164,1.167A19.849,19.849,0,0,0,30.606,32.937a1.167,1.167,0,0,0,1.164-1.167V27.7a1.168,1.168,0,0,0-1.164-1.168,13.177,13.177,0,0,1-4.164-.667,1.168,1.168,0,0,0-1.19.282l-2.566,2.566A17.75,17.75,0,0,1,15,21.029l2.565-2.566a1.169,1.169,0,0,0,.294-1.19,13.337,13.337,0,0,1-.664-4.164,1.169,1.169,0,0,0-1.167-1.167Z" fill="#111023"/>
</svg>
